<svg width="78" height="78" viewBox="0 0 78 78" fill="none" xmlns="http://www.w3.org/2000/svg">
<path d="M3.50496 17.5248C2.51189 17.5248 1.67888 17.1883 1.00593 16.5153C0.332982 15.8424 -0.00232451 15.0105 1.21279e-05 14.0198V10.5149C1.21279e-05 7.59407 1.02229 5.1114 3.06684 3.06684C5.1114 1.02229 7.59407 1.21279e-05 10.5149 1.21279e-05H14.0198C15.0129 1.21279e-05 15.8459 0.336487 16.5188 1.00944C17.1918 1.68239 17.5271 2.51423 17.5248 3.50496C17.5248 4.49803 17.1883 5.33104 16.5153 6.00399C15.8424 6.67694 15.0105 7.01225 14.0198 7.00991H10.5149C9.52179 7.00991 8.68878 7.34639 8.01583 8.01934C7.34288 8.69229 7.00757 9.52413 7.00991 10.5149V14.0198C7.00991 15.0129 6.67344 15.8459 6.00048 16.5188C5.32753 17.1918 4.49569 17.5271 3.50496 17.5248ZM10.5149 77.1089C7.59407 77.1089 5.1114 76.0866 3.06684 74.0421C1.02229 71.9975 1.21279e-05 69.5148 1.21279e-05 66.594V63.0891C1.21279e-05 62.096 0.336487 61.263 1.00944 60.5901C1.68239 59.9171 2.51423 59.5818 3.50496 59.5842C4.49803 59.5842 5.33104 59.9206 6.00399 60.5936C6.67694 61.2665 7.01225 62.0984 7.00991 63.0891V66.594C7.00991 67.5871 7.34639 68.4201 8.01934 69.0931C8.69229 69.766 9.52413 70.1013 10.5149 70.099H14.0198C15.0129 70.099 15.8459 70.4355 16.5188 71.1084C17.1918 71.7814 17.5271 72.6132 17.5248 73.604C17.5248 74.597 17.1883 75.43 16.5153 76.103C15.8424 76.7759 15.0105 77.1112 14.0198 77.1089H10.5149ZM63.0891 77.1089C62.096 77.1089 61.263 76.7724 60.5901 76.0995C59.9171 75.4265 59.5818 74.5947 59.5842 73.604C59.5842 72.6109 59.9206 71.7779 60.5936 71.1049C61.2665 70.432 62.0984 70.0967 63.0891 70.099H66.594C67.5871 70.099 68.4201 69.7625 69.0931 69.0896C69.766 68.4166 70.1013 67.5848 70.099 66.594V63.0891C70.099 62.096 70.4355 61.263 71.1084 60.5901C71.7814 59.9171 72.6132 59.5818 73.604 59.5842C74.597 59.5842 75.43 59.9206 76.103 60.5936C76.7759 61.2665 77.1112 62.0984 77.1089 63.0891V66.594C77.1089 69.5148 76.0866 71.9975 74.0421 74.0421C71.9975 76.0866 69.5148 77.1089 66.594 77.1089H63.0891ZM73.604 17.5248C72.6109 17.5248 71.7779 17.1883 71.1049 16.5153C70.432 15.8424 70.0967 15.0105 70.099 14.0198V10.5149C70.099 9.52179 69.7625 8.68878 69.0896 8.01583C68.4166 7.34288 67.5848 7.00757 66.594 7.00991H63.0891C62.096 7.00991 61.263 6.67344 60.5901 6.00048C59.9171 5.32753 59.5818 4.49569 59.5842 3.50496C59.5842 2.51189 59.9206 1.67888 60.5936 1.00593C61.2665 0.332982 62.0984 -0.00232451 63.0891 1.21279e-05H66.594C69.5148 1.21279e-05 71.9975 1.02229 74.0421 3.06684C76.0866 5.1114 77.1089 7.59407 77.1089 10.5149V14.0198C77.1089 15.0129 76.7724 15.8459 76.0995 16.5188C75.4265 17.1918 74.5947 17.5271 73.604 17.5248ZM38.5545 58.9708L42.0594 56.9554V40.8327L56.0792 32.7713V28.653L52.5743 26.6376L38.5545 34.699L24.5347 26.6376L21.0297 28.653V32.7713L35.0495 40.8327V56.9554L38.5545 58.9708ZM35.0495 65.1921L17.5248 55.0523C16.4149 54.4073 15.5526 53.5405 14.9381 52.4516C14.3259 51.365 14.0198 50.2084 14.0198 48.9817V28.653C14.0198 27.4262 14.3271 26.2696 14.9416 25.1831C15.5538 24.0942 16.4149 23.2273 17.5248 22.5824L35.0495 12.4426C36.1594 11.8 37.3277 11.4787 38.5545 11.4787C39.7812 11.4787 40.9495 11.8 42.0594 12.4426L59.5842 22.5824C60.6941 23.2273 61.5563 24.0942 62.1708 25.1831C62.783 26.2696 63.0891 27.4262 63.0891 28.653V48.9817C63.0891 50.2084 62.7818 51.365 62.1673 52.4516C61.5551 53.5405 60.6941 54.4073 59.5842 55.0523L42.0594 65.1921C40.9495 65.8346 39.7812 66.1559 38.5545 66.1559C37.3277 66.1559 36.1594 65.8346 35.0495 65.1921Z" fill="#2F80ED"/>
</svg>
