<svg width="61" height="72" viewBox="0 0 61 72" fill="none" xmlns="http://www.w3.org/2000/svg">
<path d="M2.82732 49.0995L30.1572 27.8953L57.487 49.0995C55.665 54.0628 53.0426 58.5399 49.6198 62.5307C46.197 66.5215 42.2225 69.6779 37.6964 72V52.3037C37.6964 51.2356 37.3345 50.3409 36.6108 49.6197C35.887 48.8984 34.9923 48.5365 33.9268 48.534H26.3875C25.3195 48.534 24.4236 48.8959 23.6998 49.6197C22.976 50.3435 22.6154 51.2381 22.6179 52.3037V72C18.0943 69.6754 14.1199 66.519 10.6945 62.5307C7.26921 58.5424 4.6468 54.0653 2.82732 49.0995ZM9.6656e-05 33.7382V16.0209C9.6656e-05 14.4503 0.456222 13.0216 1.36847 11.7349C2.28072 10.4482 3.45811 9.52084 4.90062 8.95288L27.5184 0.471204C28.398 0.157068 29.2776 0 30.1572 0C31.0367 0 31.9163 0.157068 32.7959 0.471204L55.4137 8.95288C56.8587 9.51832 58.0374 10.4457 58.9496 11.7349C59.8619 13.0241 60.3167 14.4528 60.3142 16.0209V33.7382C60.3142 34.9948 60.2514 36.2362 60.1258 37.4626C60.0001 38.689 59.843 39.9292 59.6546 41.1832L34.775 21.9581C33.3928 20.8901 31.8535 20.356 30.1572 20.356C28.4608 20.356 26.9216 20.8901 25.5394 21.9581L0.659783 41.1832C0.408474 39.9267 0.235071 38.6865 0.139574 37.4626C0.0440764 36.2387 -0.00241643 34.9973 9.6656e-05 33.7382Z" fill="#2F80ED"/>
</svg>
