<svg width="53" height="84" viewBox="0 0 53 84" fill="none" xmlns="http://www.w3.org/2000/svg">
<path d="M15.1286 56.7324C14.057 56.7324 13.1581 56.3693 12.432 55.6432C11.7058 54.917 11.344 54.0193 11.3465 52.9503V45.3859C12.4181 45.3859 13.317 45.0229 14.0432 44.2967C14.7693 43.5705 15.1312 42.6729 15.1286 41.6038C15.1286 40.5322 14.7656 39.6333 14.0394 38.9071C13.3132 38.1809 12.4156 37.8191 11.3465 37.8216V30.2573C11.3465 29.1857 11.7096 28.2868 12.4358 27.5606C13.1619 26.8344 14.0596 26.4726 15.1286 26.4751H37.8216C38.8932 26.4751 39.7921 26.8382 40.5183 27.5644C41.2445 28.2906 41.6063 29.1882 41.6038 30.2573V37.8216C40.5322 37.8216 39.6333 38.1847 38.9071 38.9109C38.1809 39.6371 37.8191 40.5347 37.8216 41.6038C37.8216 42.6754 38.1847 43.5743 38.9109 44.3005C39.6371 45.0266 40.5347 45.3885 41.6038 45.3859V52.9503C41.6038 54.0219 41.2407 54.9208 40.5145 55.6469C39.7883 56.3731 38.8907 56.7349 37.8216 56.7324H15.1286ZM26.4751 51.0592C26.9794 51.0592 27.4207 50.8701 27.7989 50.4919C28.1771 50.1136 28.3662 49.6724 28.3662 49.1681C28.3662 48.6638 28.1771 48.2226 27.7989 47.8443C27.4207 47.4661 26.9794 47.277 26.4751 47.277C25.9708 47.277 25.5296 47.4661 25.1514 47.8443C24.7732 48.2226 24.5841 48.6638 24.5841 49.1681C24.5841 49.6724 24.7732 50.1136 25.1514 50.4919C25.5296 50.8701 25.9708 51.0592 26.4751 51.0592ZM26.4751 43.4949C26.9794 43.4949 27.4207 43.3057 27.7989 42.9275C28.1771 42.5493 28.3662 42.1081 28.3662 41.6038C28.3662 41.0995 28.1771 40.6582 27.7989 40.28C27.4207 39.9018 26.9794 39.7127 26.4751 39.7127C25.9708 39.7127 25.5296 39.9018 25.1514 40.28C24.7732 40.6582 24.5841 41.0995 24.5841 41.6038C24.5841 42.1081 24.7732 42.5493 25.1514 42.9275C25.5296 43.3057 25.9708 43.4949 26.4751 43.4949ZM26.4751 35.9305C26.9794 35.9305 27.4207 35.7414 27.7989 35.3632C28.1771 34.985 28.3662 34.5437 28.3662 34.0395C28.3662 33.5352 28.1771 33.0939 27.7989 32.7157C27.4207 32.3375 26.9794 32.1484 26.4751 32.1484C25.9708 32.1484 25.5296 32.3375 25.1514 32.7157C24.7732 33.0939 24.5841 33.5352 24.5841 34.0395C24.5841 34.5437 24.7732 34.985 25.1514 35.3632C25.5296 35.7414 25.9708 35.9305 26.4751 35.9305ZM7.56433 83.2075C5.48414 83.2075 3.70274 82.4662 2.22013 80.9836C0.737527 79.501 -0.00251502 77.7209 6.42133e-06 75.6432V7.56433C6.42133e-06 5.48414 0.741309 3.70274 2.22392 2.22013C3.70652 0.737528 5.48666 -0.00251502 7.56433 6.42132e-06H45.3859C47.4661 6.42132e-06 49.2475 0.74131 50.7301 2.22392C52.2127 3.70652 52.9528 5.48666 52.9503 7.56433V75.6432C52.9503 77.7234 52.209 79.5048 50.7263 80.9874C49.2437 82.47 47.4636 83.2101 45.3859 83.2075H7.56433ZM7.56433 64.2967H45.3859V18.9108H7.56433V64.2967Z" fill="#2F80ED"/>
</svg>
