<svg width="53" height="74" viewBox="0 0 53 74" fill="none" xmlns="http://www.w3.org/2000/svg">
<path d="M7.63482 0.537109H0.166992L21.155 34.6655C21.1559 34.6641 23.2377 32.0829 25.2973 29.6043L7.63482 0.537109Z" fill="white"/>
<path d="M52.4455 73.181L31.612 39.3555L27.1074 44.7103L44.9767 73.181H52.4455Z" fill="white"/>
<path d="M51.9266 0.166991C51.7655 0.0493968 51.5777 -0.00871009 51.3907 -0.00780202C51.1584 -0.00689395 50.928 0.0843577 50.7517 0.260977L35.9442 16.8164L22.9011 31.2887L23.0621 31.4281C22.9636 31.5602 22.865 31.6919 22.7692 31.8218C22.8886 31.7051 23.0173 31.6038 23.144 31.4999L23.145 31.5008L22.7595 31.8345C21.8822 33.0245 21.1576 34.0688 21.1562 34.071L0.360202 71.5061C0.168636 71.9138 0.29173 72.406 0.654965 72.6703C0.815991 72.7874 1.00385 72.8455 1.19079 72.8451C1.424 72.8433 1.65444 72.7533 1.82981 72.5772L24.9389 46.7658L30.653 40.4548L31.2231 39.8132L31.1569 39.7569L31.6123 39.2434C31.6849 39.1353 31.7478 39.0359 31.7714 38.986L52.2204 1.33115C52.4124 0.922515 52.2889 0.431239 51.9266 0.166991ZM26.6496 41.5653C27.3941 41.5631 28.1363 41.4069 28.829 41.1018L5.64631 66.707L23.5262 40.5801C23.2884 40.4171 25.2855 41.5708 26.6496 41.5653ZM1.80991 72.3129L1.81268 72.3088L1.85757 72.2593L1.80991 72.3129ZM30.2445 39.3351C29.3056 40.3667 28.0276 40.9379 26.645 40.9428C25.3841 40.9483 24.1796 40.467 23.2542 39.5885C21.2552 37.6897 21.1358 34.4897 22.9904 32.4511C23.9293 31.4195 25.2082 30.8483 26.589 30.8442C27.8508 30.8388 29.0553 31.3201 29.9816 32.1977C30.9496 33.1167 31.5109 34.3653 31.5604 35.7137C31.6109 37.0613 31.1431 38.3462 30.2445 39.3351ZM29.9446 31.39C28.947 30.6208 27.7703 30.2163 26.5862 30.2199C25.9842 30.2222 25.3864 30.3312 24.8149 30.5359L47.5173 5.3457L29.9446 31.39Z" fill="white"/>
</svg>
